<?xml version="1.0" encoding="UTF-8"?>
<!DOCTYPE svg PUBLIC "-//W3C//DTD SVG 1.1//EN" "http://www.w3.org/Graphics/SVG/1.1/DTD/svg11.dtd">
<!-- Creator: CorelDRAW (Evaluation Version) -->
<svg xmlns="http://www.w3.org/2000/svg" xml:space="preserve" width="1.94792in" height="0.810079in" version="1.1" style="shape-rendering:geometricPrecision; text-rendering:geometricPrecision; image-rendering:optimizeQuality; fill-rule:evenodd; clip-rule:evenodd"
viewBox="0 0 1947.92 810.08"
 xmlns:xlink="http://www.w3.org/1999/xlink"
 xmlns:xodm="http://www.corel.com/coreldraw/odm/2003">
 <defs>
  <style type="text/css">
   <![CDATA[
    .fil0 {fill:#504793;fill-rule:nonzero}
   ]]>
  </style>
 </defs>
 <g id="Layer_x0020_1">
  <metadata id="CorelCorpID_0Corel-Layer"/>
  <g id="_105553227576384">
   <path class="fil0" d="M686.47 589.27c0,-3.87 0.7,-7.44 2.16,-10.93 1.41,-3.42 3.5,-6.36 6.1,-8.96 2.6,-2.53 5.61,-4.54 9.04,-5.95 3.42,-1.41 7.14,-2.12 11.27,-2.12 5.39,-0.15 10.08,-1.41 14.02,-3.72 3.94,-2.31 7.29,-5.47 9.97,-9.52 2.72,-4.06 4.76,-8.81 6.1,-14.28 1.34,-5.47 1.97,-11.42 1.97,-17.93l-0.22 -247.74c0,-2.53 -0.07,-4.69 -0.3,-6.43 -0.22,-1.75 -0.56,-3.31 -0.97,-4.76 -0.41,-1.41 -0.7,-2.79 -0.97,-4.06 -0.22,-1.26 -0.41,-2.79 -0.41,-4.54 0,-3.31 1.26,-6.02 3.72,-8.15 2.45,-2.16 7.55,-3.24 15.29,-3.24 5.69,0 11.01,0.56 15.84,1.6 4.83,1.04 9.04,2.79 12.61,5.24 3.57,2.45 6.36,5.8 8.41,10.08 2.05,4.28 3.09,9.74 3.09,16.48l0 231.6c0,16.81 -1.75,32.32 -5.32,46.45 -3.57,14.09 -8.96,26.33 -16.18,36.52 -7.22,10.23 -16.4,18.22 -27.6,23.91 -11.16,5.69 -24.4,8.56 -39.61,8.56 -3.98,0 -7.63,-0.7 -11.01,-2.12 -3.42,-1.41 -6.43,-3.42 -8.96,-5.95 -2.53,-2.6 -4.54,-5.54 -5.95,-8.96 -1.41,-3.5 -2.16,-7.14 -2.16,-11.08l0.08 -0zm306.61 -267.63c-2.23,0.15 -4.28,0.07 -6.25,-0.15 -1.97,-0.22 -3.94,-0.7 -5.95,-1.49 -1.97,-0.78 -4.06,-1.9 -6.1,-3.35 -2.05,-1.41 -4.28,-3.24 -6.66,-5.47 -7.92,-8.07 -15.43,-14.28 -22.65,-18.45 -7.22,-4.2 -15.55,-6.25 -24.88,-6.25 -4.76,0 -9.67,0.7 -14.73,2.16 -5.06,1.41 -9.59,3.42 -13.61,6.02 -4.06,2.6 -7.36,5.95 -10,9.89 -2.6,3.98 -3.94,8.41 -3.94,13.31 0,5.88 2.12,11.08 6.43,15.77 4.28,4.69 10,9.04 17.11,13.09 7.14,4.06 15.21,8.07 24.25,12.05 9.04,3.94 18.22,8.07 27.6,12.46 9.37,4.35 18.56,9.11 27.6,14.28 9.04,5.13 17.11,11.01 24.25,17.59 7.14,6.58 12.83,14.09 17.11,22.5 4.28,8.41 6.43,18.07 6.43,29.01 0,14.09 -3.24,26.63 -9.74,37.64 -6.51,11.01 -14.99,20.31 -25.44,27.82 -10.45,7.55 -22.2,13.31 -35.26,17.3 -13.09,3.94 -26.3,5.95 -39.61,5.95 -15.99,0 -30.13,-1.9 -42.33,-5.69 -12.2,-3.8 -22.5,-8.78 -30.98,-14.91 -8.48,-6.1 -15.21,-12.83 -20.12,-20.31 -4.91,-7.44 -8.18,-14.8 -9.74,-22.09 -0.48,-3.8 -0.3,-7.44 0.48,-10.93 0.78,-3.5 2.23,-6.58 4.2,-9.26 1.97,-2.68 4.54,-4.91 7.7,-6.58 3.16,-1.67 6.88,-2.45 11.16,-2.45 4.13,0 8.26,1.04 12.27,3.16 4.06,2.16 8.15,5.17 12.46,8.96 2.23,3.65 5.24,7.07 9.04,10.3 3.8,3.24 8.18,6.17 13.02,8.7 4.83,2.53 10.08,4.5 15.7,6.02 5.61,1.49 11.42,2.31 17.44,2.31 5.88,0 11.83,-0.78 17.74,-2.31 5.95,-1.52 11.34,-3.72 16.18,-6.66 4.83,-2.94 8.81,-6.58 11.9,-10.93 3.09,-4.35 4.61,-9.37 4.61,-15.06 0,-5.88 -2.05,-11.08 -6.25,-15.62 -4.2,-4.54 -9.67,-8.7 -16.4,-12.68 -6.73,-3.98 -14.5,-7.77 -23.21,-11.42 -8.7,-3.72 -17.59,-7.63 -26.7,-11.79 -9.11,-4.2 -18.07,-8.81 -26.78,-13.8 -8.7,-4.98 -16.4,-10.79 -23.13,-17.44 -6.73,-6.58 -12.2,-14.09 -16.4,-22.57 -4.2,-8.48 -6.32,-18.3 -6.32,-29.42 0,-12.35 2.53,-23.69 7.51,-33.92 4.98,-10.23 11.98,-19 20.94,-26.33 8.96,-7.29 19.49,-12.91 31.69,-16.96 12.2,-4.06 25.52,-6.1 39.94,-6.1 7.14,0 14.43,0.78 21.87,2.38 7.44,1.6 14.73,3.8 21.87,6.66 7.14,2.86 13.8,6.25 19.97,10.08 6.17,3.8 11.64,8 16.4,12.54 4.76,4.5 8.48,9.26 11.2,14.17 2.68,4.91 4.06,9.82 4.06,14.73 0,4.69 -0.7,8.41 -2.16,11.34 -1.41,2.94 -3.31,5.32 -5.69,7.14 -2.38,1.82 -5.17,3.16 -8.41,3.94 -3.24,0.78 -6.73,1.19 -10.38,1.19l-0.3 -0.08z"/>
   <path class="fil0" d="M1351.32 399.56c0,-10.64 -0.7,-20.61 -2.23,-29.98 -1.49,-9.33 -4.28,-17.44 -8.26,-24.25 -3.98,-6.81 -9.26,-12.2 -16.03,-16.18 -6.73,-3.98 -15.43,-5.95 -26.07,-5.95 -9.97,0 -18.71,2.05 -26.22,6.17 -7.55,4.13 -13.8,9.67 -18.71,16.74 -4.91,7.07 -8.56,15.29 -11.01,24.66 -1.78,6.77 -2.94,13.76 -3.42,21.01 0.11,3.35 0.19,6.69 0.19,10.12l0 98.89c0,2.05 -0.41,4.2 -1.26,6.43 -0.85,2.23 -2.12,4.2 -3.72,5.95 -1.6,1.75 -3.57,3.16 -5.95,4.35 -2.38,1.19 -4.98,1.82 -7.85,1.82 -5.39,0 -9.82,-1.82 -13.39,-5.47 -3.57,-3.65 -5.39,-8.18 -5.39,-13.54l0 -100.83c0,-10.64 -0.7,-20.61 -2.23,-29.98 -1.52,-9.33 -4.28,-17.44 -8.26,-24.25 -3.98,-6.81 -9.37,-12.2 -16.18,-16.18 -6.81,-3.98 -15.43,-5.95 -25.92,-5.95 -9.97,0 -18.71,2.05 -26.22,6.17 -7.51,4.13 -13.8,9.67 -18.71,16.74 -4.91,7.07 -8.56,15.29 -11.01,24.66 -2.42,9.22 -3.68,18.86 -3.72,29.01l0 0.48 0 100.35c0,5.24 -1.82,9.67 -5.54,13.31 -3.72,3.65 -8.18,5.47 -13.24,5.47 -5.54,0 -10.08,-1.82 -13.54,-5.47 -3.5,-3.65 -5.24,-8.07 -5.24,-13.31l0 -203.78c0,-3.16 0.85,-5.61 2.6,-7.36 1.75,-1.75 4.2,-2.6 7.36,-2.6 2.23,0 4.43,0.48 6.58,1.41 2.16,0.97 4.06,2.45 5.8,4.61 1.75,2.12 3.24,4.98 4.5,8.56 1.26,3.57 2.16,8.07 2.6,13.46l1.52 10.08c3.72,-5.69 8.33,-11.08 13.87,-16.18 6.43,-5.95 14.09,-11.01 23.13,-15.21 9.04,-4.2 19.49,-6.25 31.39,-6.25 17.26,0 31.61,2.94 42.96,8.89 11.34,5.95 20.27,14.09 26.93,24.4 2.27,3.53 4.31,7.25 6.14,11.2 1.19,-2.19 2.53,-4.5 4.02,-6.92 3.87,-6.32 8.96,-12.27 15.21,-17.81 6.25,-5.54 13.87,-10.23 22.83,-14.02 8.96,-3.8 19.41,-5.69 31.46,-5.69 17.11,0 31.39,3.01 42.73,9.11 11.34,6.1 20.27,14.43 26.93,24.88 6.66,10.45 11.34,22.76 14.02,36.86 2.72,14.09 4.06,29.08 4.06,44.93l0 97.7c0,2.05 -0.41,4.13 -1.19,6.25 -0.78,2.12 -1.97,4.13 -3.57,5.95 -1.6,1.82 -3.57,3.35 -5.95,4.54 -2.38,1.19 -5.06,1.82 -8.07,1.82 -5.39,0 -9.82,-1.82 -13.39,-5.47 -3.57,-3.65 -5.39,-8.18 -5.39,-13.54l0 -100.83 0.04 -0.02zm578.04 -105.81c5.06,0 9.45,1.75 13.09,5.24 3.65,3.5 5.47,7.92 5.47,13.31 0,2.53 -0.48,4.98 -1.41,7.22 -0.97,2.31 -2.23,4.2 -3.87,5.95 -1.67,1.67 -3.65,3.01 -5.95,3.98 -2.31,0.97 -4.76,1.41 -7.29,1.41l-33.06 0 0 169.78c0,5.24 -1.82,9.67 -5.47,13.31 -3.65,3.65 -8.07,5.47 -13.31,5.47 -5.54,0 -10.08,-1.82 -13.54,-5.47 -3.5,-3.65 -5.24,-8.07 -5.24,-13.31l0 -169.78 -31.61 0c-5.24,0 -9.59,-1.82 -13.17,-5.39 -3.57,-3.65 -5.39,-8 -5.39,-13.17 0,-5.24 1.82,-9.59 5.39,-13.02 3.57,-3.42 7.92,-5.06 13.17,-5.06l31.61 -0.15 0 -59.28c0,-5.24 1.75,-9.67 5.24,-13.31 3.5,-3.65 8,-5.47 13.54,-5.47 5.24,0 9.67,1.82 13.31,5.47 3.65,3.65 5.47,8.07 5.47,13.31l0 59.14 33.06 -0.15 -0.04 -0.04zm-298.17 211.62c0,4.61 -1.19,8.15 -3.57,10.71 -2.38,2.53 -5.54,3.8 -9.52,3.8 -4.43,0 -8,-1.34 -10.79,-3.98 -2.79,-2.6 -4.69,-6.17 -5.61,-10.79l-3.46 -27.19c-1.97,2.68 -4.09,5.28 -6.29,7.77 -9.33,10.52 -20.53,18.86 -33.59,24.96 -13.09,6.1 -27.67,9.19 -43.67,9.19 -16.03,0 -30.98,-3.09 -45,-9.19 -14.02,-6.1 -26.41,-14.43 -37.01,-24.96 -10.64,-10.52 -18.93,-22.83 -25.03,-36.93 -6.1,-14.09 -9.19,-29.16 -9.19,-45.19 0,-16.03 3.09,-31.06 9.19,-45.19 6.1,-14.09 14.43,-26.48 25.03,-37.01 10.64,-10.52 22.98,-18.86 37.01,-24.96 14.02,-6.1 29.01,-9.11 45,-9.11 15.99,0 30.57,3.01 43.67,9.11 13.09,6.1 24.25,14.43 33.59,24.96 2.45,2.75 4.76,5.65 6.96,8.67 1.9,-9.82 11.2,-22.83 22.31,-22.83 6.66,0 9.97,3.35 9.97,9.97l0 86.84 0 0.26 0 10.45 0 0.26 0 90.34 0 0.04zm-38.27 -101.76c0,-11.08 -1.97,-21.57 -6.02,-31.31 -4.06,-9.74 -9.59,-18.22 -16.55,-25.52 -6.99,-7.29 -15.21,-13.09 -24.73,-17.3 -9.52,-4.2 -19.75,-6.25 -30.69,-6.25 -10.93,0 -21.16,2.05 -30.69,6.25 -9.52,4.2 -17.74,10 -24.73,17.3 -6.96,7.29 -12.46,15.77 -16.48,25.52 -4.06,9.74 -6.1,20.2 -6.1,31.31 0,10.93 2.05,21.24 6.1,30.98 4.06,9.74 9.52,18.3 16.48,25.59 6.99,7.29 15.21,13.09 24.73,17.37 9.52,4.28 19.75,6.43 30.69,6.43 10.93,0 21.16,-2.12 30.69,-6.43 9.52,-4.28 17.74,-10.08 24.73,-17.37 6.96,-7.29 12.54,-15.84 16.55,-25.59 4.06,-9.74 6.02,-20.05 6.02,-30.98zm88.59 -71.07c1.67,-2.45 3.68,-5.06 6.06,-7.85 4.13,-4.91 9.11,-9.74 14.91,-14.43 5.8,-4.69 12.35,-8.96 19.82,-12.83 7.44,-3.87 15.55,-6.66 24.25,-8.41 4.61,-0.63 10.3,-0.97 17.04,-0.85 6.73,0.07 13.17,0.85 19.34,2.38 6.17,1.49 11.49,3.87 15.84,7.07 4.35,3.16 6.51,7.44 6.51,12.83 0,3.65 -1.11,6.73 -3.31,9.33 -2.23,2.6 -4.83,4.5 -7.85,5.61 -1.75,0.48 -3.35,0.7 -4.76,0.7 -1.41,0 -2.94,-0.07 -4.61,-0.22 -1.67,-0.15 -3.65,-0.41 -5.95,-0.63 -2.31,-0.22 -5.13,-0.41 -8.48,-0.56 -4.61,-0.3 -9.26,-0.48 -14.09,-0.41 -4.83,0.07 -9.74,0.97 -14.65,2.53 -6.81,2.05 -13.24,5.13 -19.34,9.33 -6.1,4.2 -11.57,9.19 -16.33,14.99 -4.76,5.8 -8.7,12.35 -11.9,19.75 -3.16,7.36 -5.32,15.21 -6.43,23.47l0 106.04c0,5.24 -1.82,9.67 -5.54,13.31 -3.72,3.65 -8.18,5.47 -13.24,5.47 -5.54,0 -10.08,-1.82 -13.54,-5.47 -3.5,-3.65 -5.24,-8.07 -5.24,-13.31l0 -184.07c0,-3.16 0.89,-5.65 2.6,-7.36 1.75,-1.75 4.2,-2.6 7.36,-2.6 11.75,0 20.38,16.07 21.54,26.22l0 -0.03z"/>
   <path class="fil0" d="M138.18 681.81c19.82,11.01 42.51,12.46 64.31,12.46 21.8,0 43.22,-4.17 64.31,-12.46 21.09,-8.3 39.91,-20.72 56.5,-37.3 16.59,-16.59 29.01,-35.41 37.3,-56.5 8.3,-21.09 12.46,-42.51 12.46,-64.31 0,-21.8 -4.13,-43.22 -12.46,-64.31 -8.3,-21.09 -20.72,-39.91 -37.3,-56.5l-274.85 -276.08c-70.48,-70.81 10.64,-153.16 82.34,-81.12l274.22 275.48 0.7 0.7c27.48,27.45 48.2,58.87 62.19,94.13 13.98,35.3 20.83,71.3 20.61,108.01 -0.22,36.71 -7.22,72.6 -20.98,107.67 -13.72,35.04 -34.59,66.54 -62.52,94.5 -27.93,27.93 -59.58,48.91 -94.88,62.89 -35.3,13.98 -71.19,20.98 -107.67,20.98 -36.48,0 -72,-7.96 -107.63,-20.98 -125.37,-45.75 -64.34,-167.07 43.33,-107.3l0.03 0z"/>
   <path class="fil0" d="M350.33 128.24c-20.34,-9.97 -42.51,-12.46 -64.31,-12.46 -21.8,0 -43.22,4.17 -64.31,12.46 -21.09,8.3 -39.91,20.72 -56.5,37.3 -16.59,16.59 -29.01,35.41 -37.3,56.5 -8.3,21.09 -12.46,42.51 -12.46,64.31 0,21.8 4.13,43.22 12.46,64.31 8.3,21.09 20.72,39.91 37.3,56.5l274.41 275.63c71.26,71.56 -10.41,153.38 -81.71,81.75l-274.41 -275.63 -0.7 -0.7c-27.48,-27.45 -48.2,-58.87 -62.19,-94.13 -13.98,-35.3 -20.83,-71.3 -20.61,-108.01 0.22,-36.71 7.22,-72.6 20.98,-107.67 13.72,-35.04 34.59,-66.54 62.52,-94.5 27.93,-27.93 59.58,-48.91 94.88,-62.89 35.3,-13.98 71.19,-20.98 107.67,-20.98 36.48,0 72.23,7.36 107.63,20.98 124.41,47.79 70.37,163.05 -43.33,107.3l-0.03 -0.04z"/>
  </g>
 </g>
</svg>
