<?xml version="1.0" encoding="UTF-8"?>
<!DOCTYPE svg PUBLIC "-//W3C//DTD SVG 1.1//EN" "http://www.w3.org/Graphics/SVG/1.1/DTD/svg11.dtd">
<!-- Creator: CorelDRAW (Evaluation Version) -->
<svg xmlns="http://www.w3.org/2000/svg" xml:space="preserve" width="0.636205in" height="0.636205in" version="1.1" style="shape-rendering:geometricPrecision; text-rendering:geometricPrecision; image-rendering:optimizeQuality; fill-rule:evenodd; clip-rule:evenodd"
viewBox="0 0 636.2 636.2"
 xmlns:xlink="http://www.w3.org/1999/xlink"
 xmlns:xodm="http://www.corel.com/coreldraw/odm/2003">
 <defs>
  <style type="text/css">
   <![CDATA[
    .fil1 {fill:white;fill-rule:nonzero}
    .fil0 {fill:url(#id0)}
   ]]>
  </style>
  <linearGradient id="id0" gradientUnits="userSpaceOnUse" x1="223.57" y1="87.83" x2="415.19" y2="726.59">
   <stop offset="0" style="stop-opacity:1; stop-color:#7128FD"/>
   <stop offset="1" style="stop-opacity:1; stop-color:#5400F0"/>
  </linearGradient>
 </defs>
 <g id="Layer_x0020_1">
  <metadata id="CorelCorpID_0Corel-Layer"/>
  <path class="fil0" d="M28.5 0l579.2 0c15.74,0 28.5,22.96 28.5,51.26l0 533.68c-0,28.3 -12.77,51.25 -28.51,51.25l-579.19 0.01c-15.73,-0.01 -28.5,-22.96 -28.5,-51.27l-0.01 -533.68c0.01,-28.3 12.77,-51.26 28.51,-51.26z"/>
  <g id="_105553183572608">
   <path class="fil1" d="M269.24 445.57c9.1,5.03 19.56,5.75 29.62,5.75 10.06,0 19.88,-1.92 29.62,-5.75 9.74,-3.83 18.37,-9.58 26.03,-17.17 7.67,-7.67 13.33,-16.29 17.17,-26.03 3.83,-9.74 5.75,-19.56 5.75,-29.62 0,-10.06 -1.92,-19.88 -5.75,-29.62 -3.83,-9.74 -9.5,-18.37 -17.17,-26.03l-126.56 -127.11c-32.42,-32.57 4.87,-70.5 37.93,-37.37l126.24 126.8 0.32 0.32c12.61,12.61 22.2,27.07 28.67,43.35 6.47,16.29 9.58,32.81 9.5,49.74 -0.08,16.93 -3.35,33.46 -9.66,49.58 -6.31,16.13 -15.89,30.66 -28.82,43.52 -12.85,12.85 -27.39,22.52 -43.68,28.98 -16.21,6.47 -32.81,9.66 -49.58,9.66 -16.77,0 -33.13,-3.67 -49.58,-9.66 -57.73,-21.08 -29.62,-76.89 19.96,-49.43l0 0.07z"/>
   <path class="fil1" d="M366.97 190.71c-9.34,-4.63 -19.56,-5.75 -29.62,-5.75 -10.06,0 -19.88,1.92 -29.62,5.75 -9.74,3.83 -18.37,9.58 -26.03,17.17 -7.67,7.67 -13.33,16.29 -17.17,26.03 -3.83,9.74 -5.75,19.56 -5.75,29.62 0,10.06 1.92,19.88 5.75,29.62 3.83,9.74 9.58,18.37 17.17,26.03l126.31 126.87c32.81,32.98 -4.79,70.58 -37.61,37.61l-126.31 -126.87 -0.32 -0.32c-12.61,-12.61 -22.2,-27.07 -28.67,-43.35 -6.47,-16.29 -9.58,-32.81 -9.5,-49.74 0.08,-16.93 3.35,-33.46 9.66,-49.58 6.31,-16.13 15.89,-30.66 28.82,-43.52 12.85,-12.85 27.47,-22.52 43.68,-28.98 16.21,-6.47 32.81,-9.66 49.58,-9.66 16.77,0 33.22,3.35 49.58,9.66 57.25,21.96 32.42,75.06 -19.96,49.43l-0 0z"/>
  </g>
 </g>
</svg>
